<svg width="93" height="41" viewBox="0 0 93 41" fill="none" xmlns="http://www.w3.org/2000/svg">
<path d="M92.7905 22.0171C92.3755 17.2303 89.6299 14.4618 86.3777 12.1821C89.876 11.2141 91.6855 6.76606 90.0063 3.32476C87.4344 -1.92672 77.8079 -0.987746 77.9286 6.35949C77.9286 8.37297 79.0625 9.68463 79.7429 10.8511C73.1033 11.4271 69.3975 14.8974 65.5662 18.2516C69.8076 16.0977 74.2517 12.3563 80.8093 13.034C83.2267 13.2735 85.4651 14.4186 87.0778 16.2407C88.6904 18.0629 89.5587 20.4281 89.5093 22.8642C89.4321 28.8029 84.6502 32.888 78.6186 32.2104C73.1998 31.6005 68.9101 26.9298 64.9437 23.595C60.7505 20.0521 56.5429 15.938 52.1326 14.1278C47.5678 12.2499 41.1116 13.3244 39.4903 17.0996C40.7853 15.6393 42.5724 14.7102 44.5086 14.4908C49.3339 13.9729 52.2725 16.3978 54.9168 18.6194C57.1991 20.5554 59.2113 22.4431 61.1896 24.321C65.6096 28.4787 69.658 32.8783 74.6184 34.8821C83.8492 38.5944 93.6397 31.7941 92.7905 22.0171Z" fill="url(#paint0_linear_106_46)"/>
<path d="M40.7063 18.4017C36.3008 20.2167 32.0883 24.3307 27.8807 27.8688C23.9191 31.2037 19.6294 35.8792 14.2106 36.489C8.17899 37.1618 3.39229 33.101 3.31992 27.1428C3.26825 24.7036 4.13675 22.3347 5.75166 20.5103C7.36657 18.6858 9.60875 17.5403 12.0296 17.303C18.5871 16.6253 23.0312 20.3667 27.2775 22.5254C23.4462 19.1664 19.7259 15.6961 13.1201 15.1201C13.7956 13.9536 14.9054 12.642 14.9344 10.6285C15.0357 3.28609 5.40926 2.36647 2.83256 7.59376C1.13888 11.0399 2.96766 15.4976 6.466 16.4656C3.21375 18.7405 0.468157 21.509 0.0531819 26.2958C-0.800895 36.0728 8.98963 42.8779 18.2011 39.1608C23.1615 37.1618 27.2148 32.7622 31.6347 28.6045C33.6276 26.7266 35.6397 24.8148 37.9076 22.8981C40.5519 20.6765 43.5098 18.2516 48.3109 18.7695C50.2478 18.9913 52.0356 19.9198 53.3341 21.3783C51.7321 17.5982 45.2758 16.5189 40.7063 18.4017Z" fill="url(#paint1_linear_106_46)"/>
<path d="M46.6028 27.1041H42.4917V31.2278H46.6028V27.1041Z" fill="url(#paint2_linear_106_46)"/>
<path d="M46.6028 33.0309H42.4917V37.1546H46.6028V33.0309Z" fill="url(#paint3_linear_106_46)"/>
<path d="M52.3184 27.1041H48.2073V31.2278H52.3184V27.1041Z" fill="url(#paint4_linear_106_46)"/>
<path d="M52.3184 33.0309H48.2073V37.1546H52.3184V33.0309Z" fill="url(#paint5_linear_106_46)"/>
<defs>
<linearGradient id="paint0_linear_106_46" x1="13.8373" y1="17.9612" x2="94.382" y2="17.9612" gradientUnits="userSpaceOnUse">
<stop stop-color="#12C2E9"/>
<stop offset="0.5" stop-color="#C471ED"/>
<stop offset="1" stop-color="#F64F59"/>
</linearGradient>
<linearGradient id="paint1_linear_106_46" x1="-0.512326" y1="22.2418" x2="82.5772" y2="22.2418" gradientUnits="userSpaceOnUse">
<stop stop-color="#12C2E9"/>
<stop offset="0.5" stop-color="#C471ED"/>
<stop offset="1" stop-color="#F64F59"/>
</linearGradient>
<linearGradient id="paint2_linear_106_46" x1="38.8337" y1="29.1666" x2="50.4391" y2="29.1666" gradientUnits="userSpaceOnUse">
<stop stop-color="#12C2E9"/>
<stop offset="0.5" stop-color="#C471ED"/>
<stop offset="1" stop-color="#F64F59"/>
</linearGradient>
<linearGradient id="paint3_linear_106_46" x1="38.8337" y1="35.0934" x2="50.4391" y2="35.0934" gradientUnits="userSpaceOnUse">
<stop stop-color="#12C2E9"/>
<stop offset="0.5" stop-color="#C471ED"/>
<stop offset="1" stop-color="#F64F59"/>
</linearGradient>
<linearGradient id="paint4_linear_106_46" x1="44.5493" y1="29.1666" x2="56.1547" y2="29.1666" gradientUnits="userSpaceOnUse">
<stop stop-color="#12C2E9"/>
<stop offset="0.5" stop-color="#C471ED"/>
<stop offset="1" stop-color="#F64F59"/>
</linearGradient>
<linearGradient id="paint5_linear_106_46" x1="44.5493" y1="35.0934" x2="56.1547" y2="35.0934" gradientUnits="userSpaceOnUse">
<stop stop-color="#12C2E9"/>
<stop offset="0.5" stop-color="#C471ED"/>
<stop offset="1" stop-color="#F64F59"/>
</linearGradient>
</defs>
</svg>
